<svg width="36" height="36" viewBox="0 0 36 36" fill="none" xmlns="http://www.w3.org/2000/svg">
<g clip-path="url(#clip0_5_34)">
<path d="M36 16.8705C35.7831 13.3605 34.5437 9.99076 32.4348 7.17663C30.3259 4.3625 27.4395 2.22703 24.1316 1.03348C20.8236 -0.160063 17.2388 -0.359509 13.8188 0.459734C10.3989 1.27898 7.29351 3.0811 4.88543 5.64392C2.47734 8.20674 0.87186 11.4182 0.266912 14.8825C-0.338036 18.3467 0.083994 21.9123 1.48097 25.1396C2.87795 28.3668 5.18881 31.1148 8.12866 33.0446C11.0685 34.9744 14.5088 36.0018 18.0255 36H28.5C30.4885 35.998 32.395 35.2072 33.8011 33.8011C35.2072 32.395 35.998 30.4885 36 28.5V16.8705ZM33 28.5C33 29.6935 32.5259 30.8381 31.682 31.682C30.8381 32.5259 29.6935 33 28.5 33H18.0255C15.9089 32.999 13.8163 32.552 11.884 31.688C9.95183 30.8239 8.22341 29.5624 6.8115 27.9855C5.39276 26.4094 4.32739 24.5482 3.68684 22.5267C3.04629 20.5051 2.84535 18.37 3.0975 16.2645C3.49565 12.9434 4.98778 9.84927 7.33866 7.46988C9.68954 5.09048 12.7655 3.56116 16.0815 3.12299C16.7283 3.04192 17.3796 3.00084 18.0315 2.99999C21.5272 2.99046 24.9147 4.21184 27.6 6.44999C29.1683 7.75341 30.4556 9.36172 31.3838 11.1774C32.312 12.9932 32.8619 14.9785 33 17.013V28.5Z" fill="white"/>
<path d="M12 13.5H18C18.3978 13.5 18.7794 13.342 19.0607 13.0607C19.342 12.7794 19.5 12.3978 19.5 12C19.5 11.6022 19.342 11.2206 19.0607 10.9393C18.7794 10.658 18.3978 10.5 18 10.5H12C11.6022 10.5 11.2206 10.658 10.9393 10.9393C10.658 11.2206 10.5 11.6022 10.5 12C10.5 12.3978 10.658 12.7794 10.9393 13.0607C11.2206 13.342 11.6022 13.5 12 13.5Z" fill="white"/>
<path d="M24 16.5H12C11.6022 16.5 11.2206 16.658 10.9393 16.9393C10.658 17.2206 10.5 17.6022 10.5 18C10.5 18.3978 10.658 18.7794 10.9393 19.0607C11.2206 19.342 11.6022 19.5 12 19.5H24C24.3978 19.5 24.7794 19.342 25.0607 19.0607C25.342 18.7794 25.5 18.3978 25.5 18C25.5 17.6022 25.342 17.2206 25.0607 16.9393C24.7794 16.658 24.3978 16.5 24 16.5Z" fill="white"/>
<path d="M24 22.5H12C11.6022 22.5 11.2206 22.658 10.9393 22.9393C10.658 23.2206 10.5 23.6022 10.5 24C10.5 24.3978 10.658 24.7794 10.9393 25.0607C11.2206 25.342 11.6022 25.5 12 25.5H24C24.3978 25.5 24.7794 25.342 25.0607 25.0607C25.342 24.7794 25.5 24.3978 25.5 24C25.5 23.6022 25.342 23.2206 25.0607 22.9393C24.7794 22.658 24.3978 22.5 24 22.5Z" fill="white"/>
</g>
<defs>
<clipPath id="clip0_5_34">
<rect width="36" height="36" fill="white"/>
</clipPath>
</defs>
</svg>
