<svg width="36" height="36" viewBox="0 0 36 36" fill="none" xmlns="http://www.w3.org/2000/svg">
<g clip-path="url(#clip0_5_29)">
<path d="M34.6813 13.6035L23.3038 2.2245C21.8956 0.820482 19.9882 0.0320587 17.9998 0.0320587C16.0113 0.0320587 14.1039 0.820482 12.6958 2.2245L1.31825 13.6035C0.898889 14.0202 0.566406 14.5159 0.340075 15.0621C0.113744 15.6082 -0.00193263 16.1938 -0.00024891 16.785V31.5105C-0.00024891 32.704 0.473857 33.8486 1.31777 34.6925C2.16168 35.5364 3.30628 36.0105 4.49975 36.0105H31.4998C32.6932 36.0105 33.8378 35.5364 34.6817 34.6925C35.5256 33.8486 35.9997 32.704 35.9997 31.5105V16.785C36.0014 16.1938 35.8858 15.6082 35.6594 15.0621C35.4331 14.5159 35.1006 14.0202 34.6813 13.6035ZM22.4998 33.0105H13.4998V27.1095C13.4998 25.916 13.9739 24.7714 14.8178 23.9275C15.6617 23.0836 16.8063 22.6095 17.9998 22.6095C19.1932 22.6095 20.3378 23.0836 21.1817 23.9275C22.0256 24.7714 22.4998 25.916 22.4998 27.1095V33.0105ZM32.9997 31.5105C32.9997 31.9083 32.8417 32.2899 32.5604 32.5712C32.2791 32.8525 31.8976 33.0105 31.4998 33.0105H25.4998V27.1095C25.4998 25.1204 24.7096 23.2127 23.3031 21.8062C21.8965 20.3997 19.9889 19.6095 17.9998 19.6095C16.0106 19.6095 14.103 20.3997 12.6965 21.8062C11.2899 23.2127 10.4998 25.1204 10.4998 27.1095V33.0105H4.49975C4.10193 33.0105 3.7204 32.8525 3.43909 32.5712C3.15779 32.2899 2.99975 31.9083 2.99975 31.5105V16.785C3.00114 16.3875 3.15903 16.0065 3.43925 15.7245L14.8168 4.35C15.6623 3.50839 16.8067 3.03591 17.9998 3.03591C19.1928 3.03591 20.3372 3.50839 21.1828 4.35L32.5602 15.729C32.8394 16.0099 32.9972 16.389 32.9997 16.785V31.5105Z" fill="#3D9CF3"/>
</g>
<defs>
<clipPath id="clip0_5_29">
<rect width="36" height="36" fill="white"/>
</clipPath>
</defs>
</svg>
