<svg width="36" height="36" viewBox="0 0 36 36" fill="none" xmlns="http://www.w3.org/2000/svg">
<g clip-path="url(#clip0_5_52)">
<path d="M35.5605 33.4395L33.945 31.824L31.35 29.2335L35.5335 25.05C35.7116 24.8716 35.8418 24.6513 35.9123 24.4093C35.9827 24.1673 35.991 23.9115 35.9364 23.6654C35.8819 23.4194 35.7662 23.1911 35.6001 23.0015C35.434 22.812 35.2228 22.6674 34.986 22.581L21.5325 17.7C20.9966 17.5063 20.4166 17.4693 19.8605 17.5932C19.3043 17.7171 18.7949 17.9968 18.3919 18.3996C17.9889 18.8025 17.7089 19.3118 17.5848 19.8679C17.4607 20.424 17.4975 21.004 17.691 21.54L22.5855 34.9935C22.6714 35.2305 22.8157 35.442 23.005 35.6085C23.1943 35.7749 23.4225 35.891 23.6685 35.946C23.7754 35.9693 23.8846 35.9808 23.994 35.9805C24.3918 35.9804 24.7733 35.8223 25.0545 35.541L29.2335 31.35L31.824 33.9405L33.4395 35.556C33.7224 35.8292 34.1013 35.9804 34.4946 35.977C34.8879 35.9736 35.2641 35.8158 35.5422 35.5377C35.8203 35.2596 35.9781 34.8834 35.9815 34.4901C35.9849 34.0968 35.8337 33.7179 35.5605 33.435V33.4395ZM24.6 31.7475L20.514 20.5125L31.749 24.5985L24.6 31.7475Z" fill="white"/>
<path d="M15 30C12.0333 30 9.13319 29.1203 6.66645 27.472C4.19971 25.8238 2.27712 23.4811 1.14181 20.7403C0.00649545 17.9994 -0.290555 14.9834 0.288224 12.0736C0.867002 9.16393 2.29561 6.49119 4.3934 4.3934C6.49119 2.29561 9.16393 0.867002 12.0736 0.288224C14.9834 -0.290555 17.9994 0.00649545 20.7403 1.14181C23.4811 2.27712 25.8238 4.19971 27.472 6.66645C29.1203 9.13319 30 12.0333 30 15C30 15.3978 29.842 15.7794 29.5607 16.0607C29.2794 16.342 28.8978 16.5 28.5 16.5C28.1022 16.5 27.7206 16.342 27.4393 16.0607C27.158 15.7794 27 15.3978 27 15C27 12.6266 26.2962 10.3065 24.9776 8.33316C23.6591 6.35977 21.7849 4.8217 19.5922 3.91345C17.3995 3.0052 14.9867 2.76756 12.6589 3.23058C10.3311 3.6936 8.19295 4.83649 6.51472 6.51472C4.83649 8.19295 3.6936 10.3311 3.23058 12.6589C2.76756 14.9867 3.0052 17.3995 3.91345 19.5922C4.8217 21.7849 6.35977 23.6591 8.33316 24.9776C10.3065 26.2962 12.6266 27 15 27C15.3978 27 15.7794 27.158 16.0607 27.4393C16.342 27.7206 16.5 28.1022 16.5 28.5C16.5 28.8978 16.342 29.2794 16.0607 29.5607C15.7794 29.842 15.3978 30 15 30Z" fill="white"/>
<path d="M12.126 23.43C11.9289 23.4301 11.7337 23.3914 11.5515 23.316C10.1848 22.7484 8.97913 21.8524 8.04133 20.7076C7.10352 19.5628 6.4625 18.2043 6.17504 16.7526C5.88757 15.3009 5.96253 13.8007 6.39328 12.3848C6.82403 10.969 7.59727 9.68121 8.64452 8.63556C9.69178 7.5899 10.9807 6.81863 12.3972 6.39005C13.8137 5.96147 15.314 5.88881 16.7653 6.1785C18.2166 6.46818 19.5741 7.11128 20.7175 8.05084C21.8609 8.9904 22.7549 10.1974 23.3205 11.565C23.3998 11.7477 23.4419 11.9444 23.4443 12.1435C23.4468 12.3427 23.4095 12.5403 23.3348 12.725C23.26 12.9096 23.1493 13.0774 23.009 13.2188C22.8686 13.3601 22.7016 13.4721 22.5175 13.5482C22.3335 13.6243 22.1361 13.663 21.9369 13.662C21.7377 13.661 21.5408 13.6203 21.3575 13.5424C21.1742 13.4645 21.0083 13.3508 20.8694 13.2081C20.7305 13.0653 20.6214 12.8964 20.5485 12.711C20.1706 11.8001 19.574 10.9964 18.8115 10.371C18.049 9.74561 17.144 9.31781 16.1768 9.12546C15.2096 8.9331 14.2098 8.98213 13.2661 9.26819C12.3223 9.55426 11.4636 10.0685 10.7659 10.7655C10.0682 11.4625 9.55313 12.3208 9.26616 13.2643C8.97919 14.2078 8.92921 15.2075 9.12064 16.1749C9.31207 17.1423 9.739 18.0476 10.3637 18.8107C10.9883 19.5739 11.7915 20.1712 12.702 20.55C13.0229 20.6828 13.2878 20.9228 13.4514 21.2291C13.6151 21.5354 13.6674 21.889 13.5994 22.2296C13.5314 22.5702 13.3474 22.8766 13.0787 23.0966C12.81 23.3166 12.4733 23.4366 12.126 23.436V23.43Z" fill="white"/>
</g>
<defs>
<clipPath id="clip0_5_52">
<rect width="36" height="36" fill="white"/>
</clipPath>
</defs>
</svg>
