<svg width="36" height="36" viewBox="0 0 36 36" fill="none" xmlns="http://www.w3.org/2000/svg">
<g clip-path="url(#clip0_5_39)">
<path d="M18 0C14.4399 0 10.9598 1.05568 7.99974 3.03355C5.03965 5.01141 2.73255 7.82263 1.37017 11.1117C0.00779533 14.4008 -0.348665 18.02 0.345869 21.5116C1.0404 25.0033 2.75474 28.2106 5.27208 30.7279C7.78943 33.2453 10.9967 34.9596 14.4884 35.6541C17.98 36.3487 21.5992 35.9922 24.8883 34.6298C28.1774 33.2675 30.9886 30.9604 32.9665 28.0003C34.9443 25.0402 36 21.5601 36 18C35.9948 13.2277 34.0968 8.65232 30.7222 5.27778C27.3477 1.90324 22.7723 0.00516162 18 0V0ZM18 33C15.0333 33 12.1332 32.1203 9.66645 30.472C7.19971 28.8238 5.27713 26.4811 4.14181 23.7403C3.0065 20.9994 2.70945 17.9834 3.28823 15.0736C3.867 12.1639 5.29561 9.49119 7.3934 7.3934C9.49119 5.29561 12.1639 3.867 15.0737 3.28822C17.9834 2.70944 20.9994 3.00649 23.7403 4.14181C26.4811 5.27712 28.8238 7.19971 30.472 9.66645C32.1203 12.1332 33 15.0333 33 18C32.9956 21.9769 31.4139 25.7897 28.6018 28.6018C25.7897 31.4139 21.9769 32.9956 18 33Z" fill="white"/>
<path d="M19.0755 7.59449C18.2105 7.43689 17.3214 7.47132 16.4712 7.69535C15.621 7.91939 14.8304 8.32755 14.1553 8.89095C13.4803 9.45435 12.9374 10.1592 12.5649 10.9557C12.1925 11.7522 11.9996 12.6207 12 13.5C12 13.8978 12.158 14.2793 12.4393 14.5607C12.7206 14.842 13.1022 15 13.5 15C13.8978 15 14.2794 14.842 14.5607 14.5607C14.842 14.2793 15 13.8978 15 13.5C14.9996 13.0587 15.0966 12.6227 15.2841 12.2231C15.4716 11.8236 15.7449 11.4703 16.0845 11.1885C16.4242 10.9067 16.8218 10.7034 17.2491 10.5929C17.6764 10.4825 18.1228 10.4676 18.5565 10.5495C19.1491 10.6645 19.6939 10.9536 20.1214 11.3797C20.5489 11.8059 20.8396 12.3498 20.9565 12.942C21.0745 13.5636 20.993 14.2066 20.7236 14.7791C20.4542 15.3516 20.0107 15.8242 19.4565 16.1295C18.5388 16.6612 17.7804 17.4293 17.2604 18.3537C16.7404 19.2781 16.4778 20.3251 16.5 21.3855V22.5C16.5 22.8978 16.658 23.2793 16.9393 23.5607C17.2206 23.842 17.6022 24 18 24C18.3978 24 18.7794 23.842 19.0607 23.5607C19.342 23.2793 19.5 22.8978 19.5 22.5V21.3855C19.4812 20.8635 19.6002 20.3458 19.8451 19.8844C20.09 19.4231 20.4521 19.0344 20.895 18.7575C21.9818 18.1606 22.8569 17.2417 23.4001 16.1271C23.9433 15.0125 24.1279 13.757 23.9284 12.5333C23.729 11.3095 23.1553 10.1776 22.2862 9.29324C21.4172 8.40884 20.2956 7.81539 19.0755 7.59449Z" fill="white"/>
<path d="M19.5 27C19.5 26.1716 18.8284 25.5 18 25.5C17.1716 25.5 16.5 26.1716 16.5 27C16.5 27.8284 17.1716 28.5 18 28.5C18.8284 28.5 19.5 27.8284 19.5 27Z" fill="white"/>
</g>
<defs>
<clipPath id="clip0_5_39">
<rect width="36" height="36" fill="white"/>
</clipPath>
</defs>
</svg>
