<svg width="36" height="36" viewBox="0 0 36 36" fill="none" xmlns="http://www.w3.org/2000/svg">
<path d="M17.214 22.5C16.8162 22.5 16.4346 22.658 16.1533 22.9393C15.872 23.2206 15.714 23.6022 15.714 24V28.5C15.714 29.6935 15.2399 30.8381 14.396 31.682C13.5521 32.5259 12.4075 33 11.214 33H7.5C6.30653 33 5.16193 32.5259 4.31802 31.682C3.47411 30.8381 3 29.6935 3 28.5V7.5C3 6.30653 3.47411 5.16193 4.31802 4.31802C5.16193 3.47411 6.30653 3 7.5 3H11.214C12.4075 3 13.5521 3.47411 14.396 4.31802C15.2399 5.16193 15.714 6.30653 15.714 7.5V12C15.714 12.3978 15.872 12.7794 16.1533 13.0607C16.4346 13.342 16.8162 13.5 17.214 13.5C17.6118 13.5 17.9934 13.342 18.2747 13.0607C18.556 12.7794 18.714 12.3978 18.714 12V7.5C18.7116 5.51161 17.9207 3.60534 16.5147 2.19933C15.1087 0.793323 13.2024 0.00238179 11.214 0H7.5C5.51161 0.00238179 3.60534 0.793323 2.19933 2.19933C0.793323 3.60534 0.00238179 5.51161 0 7.5L0 28.5C0.00238179 30.4884 0.793323 32.3947 2.19933 33.8007C3.60534 35.2067 5.51161 35.9976 7.5 36H11.214C13.2024 35.9976 15.1087 35.2067 16.5147 33.8007C17.9207 32.3947 18.7116 30.4884 18.714 28.5V24C18.714 23.6022 18.556 23.2206 18.2747 22.9393C17.9934 22.658 17.6118 22.5 17.214 22.5Z" fill="white"/>
<path d="M34.3005 14.8185L27.4215 7.9395C27.2831 7.79623 27.1176 7.68196 26.9346 7.60335C26.7516 7.52473 26.5548 7.48335 26.3556 7.48162C26.1564 7.47989 25.9589 7.51785 25.7746 7.59327C25.5902 7.66869 25.4227 7.78007 25.2819 7.92091C25.1411 8.06175 25.0297 8.22922 24.9543 8.41357C24.8788 8.59791 24.8409 8.79543 24.8426 8.9946C24.8444 9.19377 24.8857 9.3906 24.9643 9.57361C25.043 9.75661 25.1572 9.92213 25.3005 10.0605L31.6935 16.455L9 16.5C8.60218 16.5 8.22064 16.658 7.93934 16.9393C7.65804 17.2206 7.5 17.6022 7.5 18C7.5 18.3978 7.65804 18.7794 7.93934 19.0607C8.22064 19.342 8.60218 19.5 9 19.5L31.782 19.4535L25.2975 25.9395C25.1542 26.0779 25.04 26.2434 24.9613 26.4264C24.8827 26.6094 24.8414 26.8062 24.8396 27.0054C24.8379 27.2046 24.8758 27.4021 24.9513 27.5864C25.0267 27.7708 25.1381 27.9383 25.2789 28.0791C25.4197 28.2199 25.5872 28.3313 25.7716 28.4067C25.9559 28.4822 26.1534 28.5201 26.3526 28.5184C26.5518 28.5166 26.7486 28.4753 26.9316 28.3967C27.1146 28.318 27.2801 28.2038 27.4185 28.0605L34.2975 21.1815C35.1415 20.338 35.616 19.1939 35.6165 18.0006C35.6171 16.8074 35.1437 15.6628 34.3005 14.8185Z" fill="white"/>
</svg>
