<svg width="36" height="36" viewBox="0 0 36 36" fill="none" xmlns="http://www.w3.org/2000/svg">
<g clip-path="url(#clip0_5_31)">
<path d="M18 17.9999C19.78 17.9999 21.5201 17.4721 23.0001 16.4832C24.4802 15.4942 25.6337 14.0886 26.3149 12.4441C26.9961 10.7996 27.1743 8.98996 26.8271 7.24413C26.4798 5.4983 25.6226 3.89465 24.364 2.63598C23.1053 1.37731 21.5016 0.520142 19.7558 0.172875C18.01 -0.174392 16.2004 0.00383854 14.5558 0.685027C12.9113 1.36622 11.5057 2.51977 10.5168 3.99981C9.52784 5.47985 9 7.21991 9 8.99994C9.00238 11.3862 9.95136 13.674 11.6387 15.3613C13.326 17.0486 15.6138 17.9976 18 17.9999ZM18 2.99994C19.1867 2.99994 20.3467 3.35184 21.3334 4.01113C22.3201 4.67041 23.0892 5.60749 23.5433 6.70384C23.9974 7.8002 24.1162 9.0066 23.8847 10.1705C23.6532 11.3344 23.0818 12.4035 22.2426 13.2426C21.4035 14.0817 20.3344 14.6531 19.1705 14.8847C18.0067 15.1162 16.8003 14.9973 15.7039 14.5432C14.6075 14.0891 13.6705 13.3201 13.0112 12.3334C12.3519 11.3467 12 10.1866 12 8.99994C12 7.40864 12.6321 5.88252 13.7574 4.7573C14.8826 3.63208 16.4087 2.99994 18 2.99994Z" fill="white"/>
<path d="M18 21C14.4208 21.004 10.9893 22.4276 8.45844 24.9584C5.92756 27.4893 4.50397 30.9208 4.5 34.5C4.5 34.8978 4.65804 35.2794 4.93934 35.5607C5.22064 35.842 5.60218 36 6 36C6.39782 36 6.77936 35.842 7.06066 35.5607C7.34196 35.2794 7.5 34.8978 7.5 34.5C7.5 31.7152 8.60625 29.0445 10.5754 27.0754C12.5445 25.1062 15.2152 24 18 24C20.7848 24 23.4555 25.1062 25.4246 27.0754C27.3938 29.0445 28.5 31.7152 28.5 34.5C28.5 34.8978 28.658 35.2794 28.9393 35.5607C29.2206 35.842 29.6022 36 30 36C30.3978 36 30.7794 35.842 31.0607 35.5607C31.342 35.2794 31.5 34.8978 31.5 34.5C31.496 30.9208 30.0724 27.4893 27.5416 24.9584C25.0107 22.4276 21.5792 21.004 18 21Z" fill="white"/>
</g>
<defs>
<clipPath id="clip0_5_31">
<rect width="36" height="36" fill="white"/>
</clipPath>
</defs>
</svg>
